<svg width="14" height="13" viewBox="0 0 14 13" fill="none" xmlns="http://www.w3.org/2000/svg">
<path d="M6.21153 1.01074C6.6119 0.497507 7.3881 0.497507 7.78847 1.01074L9.45641 3.14888C9.57198 3.29703 9.72695 3.40962 9.90356 3.47375L12.4525 4.39934C13.0643 4.62151 13.3042 5.35972 12.9398 5.89909L11.4217 8.14613C11.3165 8.30182 11.2573 8.48399 11.2509 8.67178L11.1583 11.382C11.136 12.0325 10.5081 12.4887 9.88252 12.3089L7.27635 11.5595C7.09578 11.5075 6.90422 11.5075 6.72365 11.5595L4.11748 12.3089C3.49191 12.4887 2.86395 12.0325 2.84172 11.382L2.74909 8.67178C2.74267 8.48399 2.68348 8.30182 2.57829 8.14613L1.06022 5.89909C0.695832 5.35972 0.935691 4.62151 1.54752 4.39934L4.09644 3.47375C4.27305 3.40962 4.42802 3.29703 4.54359 3.14888L6.21153 1.01074Z" stroke="#979797"/>
</svg>
