<svg width="20" height="20" viewBox="0 0 20 20" fill="none" xmlns="http://www.w3.org/2000/svg">
<path d="M9.21153 2.01074C9.6119 1.49751 10.3881 1.49751 10.7885 2.01074L13.585 5.59557C13.7005 5.74372 13.8555 5.85631 14.0321 5.92044L18.3056 7.47229C18.9175 7.69446 19.1573 8.43267 18.7929 8.97204L16.2477 12.7394C16.1426 12.8951 16.0834 13.0773 16.0769 13.2651L15.9216 17.809C15.8994 18.4596 15.2714 18.9158 14.6459 18.7359L10.2764 17.4795C10.0958 17.4275 9.90422 17.4275 9.72365 17.4795L5.35413 18.7359C4.72855 18.9158 4.10059 18.4596 4.07836 17.809L3.92306 13.2651C3.91664 13.0773 3.85745 12.8951 3.75227 12.7394L1.20705 8.97204C0.842663 8.43267 1.08252 7.69446 1.69435 7.47229L5.96789 5.92044C6.1445 5.85631 6.29947 5.74372 6.41504 5.59557L9.21153 2.01074Z" stroke="#006241" stroke-width="2"/>
</svg>
