<svg width="20" height="20" viewBox="0 0 20 20" fill="none" xmlns="http://www.w3.org/2000/svg">
<path d="M3.33333 5.83332C3.33333 4.91285 4.07952 4.16666 4.99999 4.16666V4.16666H6.66666H8.33333H15C15.9205 4.16666 16.6667 4.91285 16.6667 5.83332V14.2347C16.6667 14.9224 16.1092 15.4798 15.4216 15.4798V15.4798C14.9785 15.4798 14.5687 15.7153 14.3457 16.0983L13.84 16.9666C13.6914 17.2218 13.3319 17.2457 13.1509 17.0125L12.4612 16.1243C12.1455 15.7177 11.6596 15.4798 11.1448 15.4798H4.99999C4.07952 15.4798 3.33333 14.7336 3.33333 13.8131V5.83332Z" stroke="#6F6F6F"/>
<path d="M6.66667 8.33334H13.3333" stroke="#6F6F6F" stroke-linecap="round"/>
<path d="M6.66667 11.6667H10" stroke="#6F6F6F" stroke-linecap="round"/>
</svg>
