<svg width="24" height="24" viewBox="0 0 24 24" fill="none" xmlns="http://www.w3.org/2000/svg">
<path d="M14 17C14 18.1046 13.1046 19 12 19C10.8954 19 10 18.1046 10 17" stroke="#A7A7A7"/>
<path d="M7 10C7 7.23858 9.23858 5 12 5V5C14.7614 5 17 7.23858 17 10V13.5836C17 14.5151 17.2199 15.4398 17.6365 16.2729V16.2729C17.8027 16.6054 17.5627 17 17.191 17H6.80902C6.43733 17 6.19731 16.6054 6.36353 16.2729V16.2729C6.7801 15.4398 7 14.5151 7 13.5836V10Z" stroke="#A7A7A7"/>
<circle cx="12" cy="4" r="1" fill="#A7A7A7"/>
</svg>
